<?xml version="1.0" encoding="utf-8"?>
<!-- Generator: Adobe Illustrator 27.6.1, SVG Export Plug-In . SVG Version: 6.00 Build 0)  -->
<svg version="1.1" xmlns="http://www.w3.org/2000/svg" xmlns:xlink="http://www.w3.org/1999/xlink" x="0px" y="0px"
	 viewBox="0 0 800 800" style="enable-background:new 0 0 800 800;" xml:space="preserve">
<style type="text/css">
	.st0{fill:none;stroke:#000000;stroke-width:3;stroke-miterlimit:10;}
	.st1{fill:#FFFFFF;stroke:#000000;stroke-width:3;stroke-miterlimit:10;}
</style>
<g id="Layer_1">
</g>
<g id="Layer_2">
	<g>
		<path class="st0" d="M383.16,691.81C252.57,594.68,103.99,463.74,92.26,410.77c-32.81-135.14,67.84-212.11,137.8-222.88
			c57.19-8.8,112.07,21.96,156.21,50.23"/>
		<path class="st0" d="M231.56,176.91"/>
		<path class="st1" d="M147.11,497.37c1.49,12.83,34.7,15.05,33.93,23.97c-0.79,9.03-35.76,17.94-67.89,9.93
			c-28.8-7.18-72.39-32.2-66.04-51.98c20.56-64.05,234.77-113.43,269.24-121.06c1.04-1.39,8.95-16.05,29.14-37.49
			c19.97-21.21,47.07-44.19,49.78-41.53c3.57,3.51-30.32,41.8-30.32,55.57c0,21.06,121.34-45.92,118.72-32.56
			c-0.52,2.64-67.05,34.6-63.99,45.81c3.17,11.62,81.62-8.72,81.61,2.59c1.17,6.43-79.28,16.9-77.99,26.36
			c1.17,8.55,83.18-2.25,70.52,7.72c0.06,2.3-63.84,12.48-81.31,15.34c-0.34,6.51,52.15,17.57,51.78,22.28
			c-0.39,5.07-60.9-6.04-121.86-0.06C241.72,450.1,171.29,496,147.11,497.37z"/>
		<path class="st0" d="M374.06,693.02c134.72-92.17,288.66-217.46,302.21-269.95c37.46-133.82-61.4-214.53-131.51-227.92
			c-57.32-10.95-113.6,17.74-158.99,44.34"/>
		<g>
			<path class="st1" d="M426.84,540.88c-61.42,11-112.31,46.07-115.01,40.29c-2.43-5.18,38.63-26.35,35.66-32.95
				c-3.74-8.32-72.59,15.2-73.78,11.9c-1.14-3.18,64.36-23.49,62.05-32.71c-2.47-9.9-81.48,4.83-82.09,0.96
				c-0.59-3.73,72.5-15.57,72.04-27.54c-0.45-11.77-74.28-18.63-74-22.3c0.36-4.66,113.45,5.83,117.4-12.86
				c2.54-12.04-38.49-26.72-36.17-37.3c39.32-7.56,42.65,24.88,86.39,36.02c89.47,22.78,126.06-38.02,233.16-25.3
				c5.62,0.67,93.3,11.76,98.05,45.45c3.77,26.77-26.9,61.53-75.71,75.61"/>
			<path class="st1" d="M674.84,560.15c-78.28,14.43-108.42-20.68-248-19.26"/>
			<path class="st1" d="M332.95,419.36"/>
			<path class="st1" d="M251.72,478.53c0.36-4.66,113.45,5.83,117.4-12.86"/>
		</g>
	</g>
</g>
</svg>
