<svg version="1.1" id="Layer_1" xmlns="http://www.w3.org/2000/svg" xmlns:xlink="http://www.w3.org/1999/xlink" x="0px" y="0px"
	 width="100%" viewBox="0 0 324 249" enable-background="new 0 0 324 249" xml:space="preserve">
<path fill="#354358" opacity="1.000000" stroke="none" 
	d="
M234.000000,250.000000 
	C156.000031,250.000000 78.500046,250.000000 1.000052,250.000000 
	C1.000035,167.000046 1.000035,84.000099 1.000017,1.000108 
	C108.999916,1.000072 216.999832,1.000072 324.999817,1.000036 
	C324.999878,83.999893 324.999878,166.999786 324.999939,249.999847 
	C294.833344,250.000000 264.666656,250.000000 234.000000,250.000000 
M251.461044,133.870865 
	C255.851746,123.193298 257.529297,112.238976 256.135162,100.642281 
	C251.963531,65.942055 216.305786,40.716961 182.238434,48.571476 
	C172.124908,50.903233 163.297363,55.721916 155.073151,61.868900 
	C148.868362,66.506508 148.869568,66.425911 142.923416,61.830631 
	C139.894669,59.489979 136.821869,57.183517 133.612381,55.103222 
	C111.631874,40.856087 88.877602,40.798542 67.193665,54.429417 
	C45.012047,68.373138 35.476349,89.899490 39.541039,115.744125 
	C41.004833,125.051414 39.889114,130.028900 32.230011,135.681458 
	C21.355602,143.706970 23.453030,155.933411 35.644924,161.981827 
	C46.741402,167.486801 58.529350,169.156891 70.664803,166.982651 
	C74.762741,166.248474 77.538307,167.303040 80.604507,169.763794 
	C101.005623,186.136581 121.596962,202.272858 141.946915,218.708328 
	C145.422073,221.514954 147.744125,221.712662 151.353104,218.937653 
	C167.069855,206.852768 183.059753,195.123764 198.850189,183.133484 
	C201.833359,180.868256 204.690231,180.085785 208.503220,180.486954 
	C221.917038,181.898254 235.367340,183.030838 248.826874,183.919708 
	C261.175781,184.735229 272.484802,181.437653 281.258575,172.511124 
	C286.316925,167.364685 291.767700,161.109146 289.936340,153.307571 
	C288.048065,145.263672 280.257416,142.691681 273.068359,140.986313 
	C266.955444,139.536179 260.582733,139.164093 254.315735,138.389633 
	C251.956696,138.098114 249.727997,137.886993 251.461044,133.870865 
z"/>
<path fill="#648721" opacity="1.000000" stroke="none" 
	d="
M251.311295,134.214554 
	C249.727997,137.886993 251.956696,138.098114 254.315735,138.389633 
	C260.582733,139.164093 266.955444,139.536179 273.068359,140.986313 
	C280.257416,142.691681 288.048065,145.263672 289.936340,153.307571 
	C291.767700,161.109146 286.316925,167.364685 281.258575,172.511124 
	C272.484802,181.437653 261.175781,184.735229 248.826874,183.919708 
	C235.367340,183.030838 221.917038,181.898254 208.503220,180.486954 
	C204.690231,180.085785 201.833359,180.868256 198.850189,183.133484 
	C183.059753,195.123764 167.069855,206.852768 151.353104,218.937653 
	C147.744125,221.712662 145.422073,221.514954 141.946915,218.708328 
	C121.596962,202.272858 101.005623,186.136581 80.604507,169.763794 
	C77.538307,167.303040 74.762741,166.248474 70.664803,166.982651 
	C58.529350,169.156891 46.741402,167.486801 35.644924,161.981827 
	C23.453030,155.933411 21.355602,143.706970 32.230011,135.681458 
	C39.889114,130.028900 41.004833,125.051414 39.541039,115.744125 
	C35.476349,89.899490 45.012047,68.373138 67.193665,54.429417 
	C88.877602,40.798542 111.631874,40.856087 133.612381,55.103222 
	C136.821869,57.183517 139.894669,59.489979 142.923416,61.830631 
	C148.869568,66.425911 148.868362,66.506508 155.073151,61.868900 
	C163.297363,55.721916 172.124908,50.903233 182.238434,48.571476 
	C216.305786,40.716961 251.963531,65.942055 256.135162,100.642281 
	C257.529297,112.238976 255.851746,123.193298 251.311295,134.214554 
M126.853683,182.711960 
	C125.376564,182.966965 123.905678,183.268524 122.421036,183.467377 
	C119.239342,183.893539 115.512733,184.554764 114.430099,180.574997 
	C113.404999,176.806717 116.913307,175.673798 119.654083,174.423798 
	C119.863136,174.328445 119.906662,173.870148 120.175568,173.223755 
	C118.570663,173.223755 117.126579,173.196060 115.683907,173.229279 
	C112.220520,173.309006 107.749001,174.166321 107.061165,169.620514 
	C106.310387,164.658798 111.402077,165.019714 114.466545,164.113831 
	C118.596954,162.892807 122.892784,162.231369 127.117622,161.329773 
	C127.066345,160.857040 127.015060,160.384293 126.963776,159.911545 
	C122.074730,159.088379 117.173882,158.328354 112.301216,157.417542 
	C109.529129,156.899368 106.526581,155.630859 107.471252,152.408981 
	C107.957069,150.752075 111.015907,148.862183 112.964195,148.803299 
	C119.265717,148.612839 125.590462,149.428284 131.908081,149.456909 
	C136.881332,149.479446 141.857269,148.911606 148.201447,148.521866 
	C142.579041,142.300140 134.274261,139.786026 137.224380,130.399872 
	C136.846466,130.071884 136.468567,129.743912 136.090652,129.415939 
	C114.849197,137.078934 93.607742,144.741943 72.785744,152.253632 
	C75.423622,156.095108 77.624962,159.267090 79.788826,162.464432 
	C81.130028,164.446198 82.012268,166.966507 83.785927,168.392685 
	C103.259727,184.051010 122.919388,199.478226 142.388977,215.141693 
	C145.525848,217.665344 147.730347,217.915451 151.036499,215.377930 
	C165.175751,204.525925 179.503799,193.919113 193.820053,183.299805 
	C195.092041,182.356293 196.775620,181.967651 198.268036,181.321304 
	C197.698700,180.612305 197.129349,179.903290 196.560013,179.194290 
	C189.325165,178.174866 182.095047,177.119293 174.851074,176.169571 
	C173.560181,176.000351 172.098785,175.956879 170.907852,176.386658 
	C161.712479,179.705032 152.555984,183.132065 143.406525,186.576111 
	C140.603317,187.631287 137.939926,189.186890 135.059845,189.862961 
	C133.174667,190.305481 130.512390,190.221115 129.151123,189.155457 
	C128.207993,188.417130 128.888733,185.604492 129.151352,183.539520 
	C129.225006,183.154022 129.298660,182.768509 129.372314,182.382996 
	C128.799789,182.453308 128.227280,182.523621 126.853683,182.711960 
M173.260666,100.540726 
	C178.229019,100.021263 183.199738,99.134758 188.164536,99.166672 
	C190.095291,99.179085 192.012695,101.263496 193.936172,102.404076 
	C192.486725,104.188416 191.349701,106.471596 189.505936,107.626381 
	C187.370987,108.963547 184.614517,109.308388 182.127869,110.084030 
	C182.980042,110.896690 183.876846,110.769180 184.506226,111.120598 
	C186.633377,112.308281 188.665665,113.665840 190.734222,114.958450 
	C189.026184,116.695694 187.580383,118.907227 185.536606,120.037193 
	C183.480301,121.174088 180.829193,121.235176 178.382614,121.780167 
	C181.517014,129.203156 180.169983,131.086990 172.179047,130.830383 
	C170.017609,130.760986 167.860596,130.287964 165.706039,130.318451 
	C158.356842,130.422363 151.009644,130.668198 143.661682,130.859879 
	C143.621948,131.318329 143.582230,131.776764 143.542511,132.235214 
	C144.500488,132.762939 145.402557,133.467728 146.425217,133.790558 
	C155.062744,136.517288 163.249863,139.992783 170.258087,146.011108 
	C171.821304,147.353516 174.609955,147.932465 176.770706,147.802628 
	C187.074493,147.183502 197.422440,146.666016 207.628647,145.221710 
	C219.471741,143.545792 231.215027,141.089539 242.920059,138.590057 
	C244.778915,138.193130 246.836685,136.097107 247.736069,134.263550 
	C253.667221,122.171928 255.302597,109.320045 252.101212,96.300087 
	C241.582306,53.520092 195.034683,36.907108 159.089386,62.891701 
	C148.715256,70.391083 148.574722,70.563553 138.672073,62.494576 
	C123.998688,50.538258 107.672081,45.639072 88.817085,49.056488 
	C56.212700,54.965946 34.562321,89.109497 43.388210,121.126526 
	C44.072292,123.608116 44.593227,125.884361 48.353436,124.825264 
	C71.598465,118.278107 94.942650,112.077003 118.122650,105.311310 
	C121.611809,104.292908 125.494080,101.569046 127.329613,98.513733 
	C132.687729,89.594925 141.199326,84.232384 148.716614,77.737328 
	C149.517776,77.045128 151.577072,76.668747 152.220810,77.184387 
	C153.376205,78.109917 154.615875,79.872696 154.526459,81.198334 
	C154.376312,83.424416 153.424988,85.685951 152.420517,87.741928 
	C151.203842,90.232262 149.581665,92.524483 148.134964,94.902435 
	C148.364548,95.366890 148.594131,95.831352 148.823700,96.295807 
	C153.271255,94.886841 157.814026,93.719162 162.143356,92.010635 
	C168.180389,89.628166 173.935577,86.474312 180.071152,84.430374 
	C182.166031,83.732513 186.239105,84.573792 187.307922,86.142723 
	C189.316422,89.091042 186.340698,91.175713 183.813583,92.666962 
	C179.799622,95.035599 175.752731,97.348457 171.457947,99.856171 
	C171.772919,100.083191 172.087891,100.310211 173.260666,100.540726 
M155.064941,178.549805 
	C158.538025,177.464111 161.954117,176.107162 165.498840,175.362473 
	C169.778809,174.463287 174.247574,173.225891 178.496338,173.621170 
	C201.545181,175.765411 224.545547,178.424698 247.574493,180.791107 
	C260.109436,182.079178 271.646454,178.620560 279.836029,169.295975 
	C291.734375,155.748672 289.750885,149.465347 273.300751,144.312378 
	C259.768341,140.073395 245.690353,141.145309 231.717377,143.442978 
	C215.144577,146.168198 198.488098,148.384247 181.868591,150.825745 
	C175.027908,151.830673 169.137451,150.106583 163.904633,145.399628 
	C157.387238,139.537216 148.782578,138.486023 141.016968,135.513901 
	C140.682358,136.037704 140.347733,136.561493 140.013123,137.085297 
	C144.982666,140.855072 149.952194,144.624863 155.194183,148.601334 
	C140.825760,155.838257 125.798798,150.731613 111.387329,151.942734 
	C111.346336,152.537766 111.305344,153.132797 111.264351,153.727829 
	C120.066444,155.461090 128.868546,157.194366 137.670639,158.927628 
	C137.683624,159.846085 137.696594,160.764557 137.709564,161.683014 
	C128.859909,163.870941 120.010239,166.058868 111.160576,168.246796 
	C111.283699,168.929459 111.406822,169.612122 111.529945,170.294785 
	C121.387199,169.473602 131.244446,168.652420 141.101700,167.831238 
	C141.236130,168.461105 141.370560,169.090973 141.505005,169.720840 
	C133.658905,172.738342 125.812813,175.755844 117.966713,178.773346 
	C118.144447,179.449081 118.322189,180.124817 118.499924,180.800552 
	C127.640511,178.823502 136.781097,176.846451 145.921692,174.869400 
	C146.135284,175.509613 146.348877,176.149811 146.562469,176.790024 
	C141.682739,179.733994 136.803009,182.677963 131.923294,185.621948 
	C132.201599,186.143372 132.479919,186.664795 132.758224,187.186234 
	C139.934372,184.376648 147.110519,181.567062 155.064941,178.549805 
M34.772163,157.809341 
	C47.739510,165.031097 61.283695,166.469635 75.359772,162.575562 
	C75.656906,161.949036 75.954041,161.322525 76.251175,160.695999 
	C72.426659,158.163406 68.602142,155.630829 64.189392,152.708725 
	C66.460663,151.736816 67.941925,151.028778 69.474487,150.458664 
	C84.465042,144.882324 99.456024,139.306946 114.463669,133.776840 
	C124.585747,130.046997 134.543579,125.371178 145.851212,127.969765 
	C146.473724,128.112808 147.175232,127.881287 147.840561,127.873421 
	C154.804840,127.791061 161.769150,127.712578 168.733597,127.647171 
	C171.069290,127.625237 173.405365,127.643707 175.741257,127.643707 
	C175.801712,127.099663 175.862183,126.555618 175.922638,126.011574 
	C170.005783,124.664291 164.088928,123.317009 158.172073,121.969727 
	C158.293213,121.405312 158.414337,120.840889 158.535477,120.276474 
	C167.731110,118.191261 177.648849,119.684555 186.555740,116.168457 
	C186.487183,115.365082 186.418625,114.561714 186.350067,113.758347 
	C178.350876,113.758347 170.351685,113.758347 162.352478,113.758347 
	C162.271347,112.974136 162.190201,112.189926 162.109070,111.405716 
	C166.832336,110.255608 171.565109,109.142845 176.276215,107.944824 
	C180.924179,106.762848 185.550186,105.494606 190.185837,104.264206 
	C190.060867,103.612144 189.935883,102.960083 189.810913,102.308029 
	C180.149384,101.356796 170.428482,106.058350 160.777924,104.061821 
	C160.663498,103.434280 160.549088,102.806740 160.434662,102.179199 
	C168.355209,97.638634 176.275742,93.098061 184.196289,88.557495 
	C183.952438,87.995338 183.708603,87.433182 183.464752,86.871033 
	C169.538910,89.896027 157.635666,101.157722 141.629059,98.536484 
	C144.731689,92.124268 150.686356,88.034843 150.832840,80.884224 
	C143.485367,86.636185 135.154694,91.150497 130.545349,99.677109 
	C127.842049,104.677818 123.645531,107.501381 118.161812,108.948441 
	C97.062637,114.516151 75.833771,119.697243 55.028053,126.218277 
	C47.197205,128.672653 39.783546,133.625397 33.275757,138.813919 
	C26.415958,144.283112 27.369541,151.884308 34.772163,157.809341 
z"/>
<path fill="#354458" opacity="1.000000" stroke="none" 
	d="
M171.719757,99.684906 
	C175.752731,97.348457 179.799622,95.035599 183.813583,92.666962 
	C186.340698,91.175713 189.316422,89.091042 187.307922,86.142723 
	C186.239105,84.573792 182.166031,83.732513 180.071152,84.430374 
	C173.935577,86.474312 168.180389,89.628166 162.143356,92.010635 
	C157.814026,93.719162 153.271255,94.886841 148.823700,96.295807 
	C148.594131,95.831352 148.364548,95.366890 148.134964,94.902435 
	C149.581665,92.524483 151.203842,90.232262 152.420517,87.741928 
	C153.424988,85.685951 154.376312,83.424416 154.526459,81.198334 
	C154.615875,79.872696 153.376205,78.109917 152.220810,77.184387 
	C151.577072,76.668747 149.517776,77.045128 148.716614,77.737328 
	C141.199326,84.232384 132.687729,89.594925 127.329613,98.513733 
	C125.494080,101.569046 121.611809,104.292908 118.122650,105.311310 
	C94.942650,112.077003 71.598465,118.278107 48.353436,124.825264 
	C44.593227,125.884361 44.072292,123.608116 43.388210,121.126526 
	C34.562321,89.109497 56.212700,54.965946 88.817085,49.056488 
	C107.672081,45.639072 123.998688,50.538258 138.672073,62.494576 
	C148.574722,70.563553 148.715256,70.391083 159.089386,62.891701 
	C195.034683,36.907108 241.582306,53.520092 252.101212,96.300087 
	C255.302597,109.320045 253.667221,122.171928 247.736069,134.263550 
	C246.836685,136.097107 244.778915,138.193130 242.920059,138.590057 
	C231.215027,141.089539 219.471741,143.545792 207.628647,145.221710 
	C197.422440,146.666016 187.074493,147.183502 176.770706,147.802628 
	C174.609955,147.932465 171.821304,147.353516 170.258087,146.011108 
	C163.249863,139.992783 155.062744,136.517288 146.425217,133.790558 
	C145.402557,133.467728 144.500488,132.762939 143.542511,132.235214 
	C143.582230,131.776764 143.621948,131.318329 143.661682,130.859879 
	C151.009644,130.668198 158.356842,130.422363 165.706039,130.318451 
	C167.860596,130.287964 170.017609,130.760986 172.179047,130.830383 
	C180.169983,131.086990 181.517014,129.203156 178.382614,121.780167 
	C180.829193,121.235176 183.480301,121.174088 185.536606,120.037193 
	C187.580383,118.907227 189.026184,116.695694 190.734222,114.958450 
	C188.665665,113.665840 186.633377,112.308281 184.506226,111.120598 
	C183.876846,110.769180 182.980042,110.896690 182.127869,110.084030 
	C184.614517,109.308388 187.370987,108.963547 189.505936,107.626381 
	C191.349701,106.471596 192.486725,104.188416 193.936188,102.404083 
	C192.012695,101.263496 190.095291,99.179085 188.164536,99.166672 
	C183.199738,99.134758 178.229019,100.021263 172.662369,100.324791 
	C171.949310,99.967537 171.834534,99.826225 171.719757,99.684906 
z"/>
<path fill="#364457" opacity="1.000000" stroke="none" 
	d="
M154.675812,178.653641 
	C147.110519,181.567062 139.934372,184.376648 132.758224,187.186234 
	C132.479919,186.664795 132.201599,186.143372 131.923294,185.621948 
	C136.803009,182.677963 141.682739,179.733994 146.562469,176.790024 
	C146.348877,176.149811 146.135284,175.509613 145.921692,174.869400 
	C136.781097,176.846451 127.640511,178.823502 118.499924,180.800552 
	C118.322189,180.124817 118.144447,179.449081 117.966713,178.773346 
	C125.812813,175.755844 133.658905,172.738342 141.505005,169.720840 
	C141.370560,169.090973 141.236130,168.461105 141.101700,167.831238 
	C131.244446,168.652420 121.387199,169.473602 111.529945,170.294785 
	C111.406822,169.612122 111.283699,168.929459 111.160576,168.246796 
	C120.010239,166.058868 128.859909,163.870941 137.709564,161.683014 
	C137.696594,160.764557 137.683624,159.846085 137.670639,158.927628 
	C128.868546,157.194366 120.066444,155.461090 111.264351,153.727829 
	C111.305344,153.132797 111.346336,152.537766 111.387329,151.942734 
	C125.798798,150.731613 140.825760,155.838257 155.194183,148.601334 
	C149.952194,144.624863 144.982666,140.855072 140.013123,137.085297 
	C140.347733,136.561493 140.682358,136.037704 141.016968,135.513901 
	C148.782578,138.486023 157.387238,139.537216 163.904633,145.399628 
	C169.137451,150.106583 175.027908,151.830673 181.868591,150.825745 
	C198.488098,148.384247 215.144577,146.168198 231.717377,143.442978 
	C245.690353,141.145309 259.768341,140.073395 273.300751,144.312378 
	C289.750885,149.465347 291.734375,155.748672 279.836029,169.295975 
	C271.646454,178.620560 260.109436,182.079178 247.574493,180.791107 
	C224.545547,178.424698 201.545181,175.765411 178.496338,173.621170 
	C174.247574,173.225891 169.778809,174.463287 165.498840,175.362473 
	C161.954117,176.107162 158.538025,177.464111 154.675812,178.653641 
z"/>
<path fill="#364457" opacity="1.000000" stroke="none" 
	d="
M34.462490,157.607117 
	C27.369541,151.884308 26.415958,144.283112 33.275757,138.813919 
	C39.783546,133.625397 47.197205,128.672653 55.028053,126.218277 
	C75.833771,119.697243 97.062637,114.516151 118.161812,108.948441 
	C123.645531,107.501381 127.842049,104.677818 130.545349,99.677109 
	C135.154694,91.150497 143.485367,86.636185 150.832840,80.884224 
	C150.686356,88.034843 144.731689,92.124268 141.629059,98.536484 
	C157.635666,101.157722 169.538910,89.896027 183.464752,86.871033 
	C183.708603,87.433182 183.952438,87.995338 184.196289,88.557495 
	C176.275742,93.098061 168.355209,97.638634 160.434662,102.179199 
	C160.549088,102.806740 160.663498,103.434280 160.777924,104.061821 
	C170.428482,106.058350 180.149384,101.356796 189.810913,102.308029 
	C189.935883,102.960083 190.060867,103.612144 190.185837,104.264206 
	C185.550186,105.494606 180.924179,106.762848 176.276215,107.944824 
	C171.565109,109.142845 166.832336,110.255608 162.109070,111.405716 
	C162.190201,112.189926 162.271347,112.974136 162.352478,113.758347 
	C170.351685,113.758347 178.350876,113.758347 186.350067,113.758347 
	C186.418625,114.561714 186.487183,115.365082 186.555740,116.168457 
	C177.648849,119.684555 167.731110,118.191261 158.535477,120.276474 
	C158.414337,120.840889 158.293213,121.405312 158.172073,121.969727 
	C164.088928,123.317009 170.005783,124.664291 175.922638,126.011574 
	C175.862183,126.555618 175.801712,127.099663 175.741257,127.643707 
	C173.405365,127.643707 171.069290,127.625237 168.733597,127.647171 
	C161.769150,127.712578 154.804840,127.791061 147.840561,127.873421 
	C147.175232,127.881287 146.473724,128.112808 145.851212,127.969765 
	C134.543579,125.371178 124.585747,130.046997 114.463669,133.776840 
	C99.456024,139.306946 84.465042,144.882324 69.474487,150.458664 
	C67.941925,151.028778 66.460663,151.736816 64.189392,152.708725 
	C68.602142,155.630829 72.426659,158.163406 76.251175,160.695999 
	C75.954041,161.322525 75.656906,161.949036 75.359772,162.575562 
	C61.283695,166.469635 47.739510,165.031097 34.462490,157.607117 
z"/>
<path fill="#364457" opacity="1.000000" stroke="none" 
	d="
M128.843903,183.718704 
	C128.888733,185.604492 128.207993,188.417130 129.151123,189.155457 
	C130.512390,190.221115 133.174667,190.305481 135.059845,189.862961 
	C137.939926,189.186890 140.603317,187.631287 143.406525,186.576111 
	C152.555984,183.132065 161.712479,179.705032 170.907852,176.386658 
	C172.098785,175.956879 173.560181,176.000351 174.851074,176.169571 
	C182.095047,177.119293 189.325165,178.174866 196.560013,179.194290 
	C197.129349,179.903290 197.698700,180.612305 198.268036,181.321304 
	C196.775620,181.967651 195.092041,182.356293 193.820053,183.299805 
	C179.503799,193.919113 165.175751,204.525925 151.036499,215.377930 
	C147.730347,217.915451 145.525848,217.665344 142.388977,215.141693 
	C122.919388,199.478226 103.259727,184.051010 83.785927,168.392685 
	C82.012268,166.966507 81.130028,164.446198 79.788826,162.464432 
	C77.624962,159.267090 75.423622,156.095108 72.785744,152.253632 
	C93.607742,144.741943 114.849197,137.078934 136.090652,129.415939 
	C136.468567,129.743912 136.846466,130.071884 137.224380,130.399872 
	C134.274261,139.786026 142.579041,142.300140 148.201447,148.521866 
	C141.857269,148.911606 136.881332,149.479446 131.908081,149.456909 
	C125.590462,149.428284 119.265717,148.612839 112.964195,148.803299 
	C111.015907,148.862183 107.957069,150.752075 107.471252,152.408981 
	C106.526581,155.630859 109.529129,156.899368 112.301216,157.417542 
	C117.173882,158.328354 122.074730,159.088379 126.963776,159.911545 
	C127.015060,160.384293 127.066345,160.857040 127.117622,161.329773 
	C122.892784,162.231369 118.596954,162.892807 114.466545,164.113831 
	C111.402077,165.019714 106.310387,164.658798 107.061165,169.620514 
	C107.749001,174.166321 112.220520,173.309006 115.683907,173.229279 
	C117.126579,173.196060 118.570663,173.223755 120.175568,173.223755 
	C119.906662,173.870148 119.863136,174.328445 119.654083,174.423798 
	C116.913307,175.673798 113.404999,176.806717 114.430099,180.574997 
	C115.512733,184.554764 119.239342,183.893539 122.421036,183.467377 
	C123.905678,183.268524 125.376564,182.966965 127.548943,182.936844 
	C128.444107,183.347382 128.643997,183.533051 128.843903,183.718704 
z"/>
<path fill="#364457" opacity="1.000000" stroke="none" 
	d="
M127.949478,182.877823 
	C128.227280,182.523621 128.799789,182.453308 129.372314,182.382996 
	C129.298660,182.768509 129.225006,183.154022 128.997620,183.629120 
	C128.643997,183.533051 128.444107,183.347382 127.949478,182.877823 
z"/>
<path fill="#354458" opacity="1.000000" stroke="none" 
	d="
M172.233459,100.323044 
	C172.087891,100.310211 171.772919,100.083191 171.588852,99.770538 
	C171.834534,99.826225 171.949310,99.967537 172.233459,100.323044 
z"/>
</svg>